# xmcd CD database file
#
# Track frame offsets:
#	150
#	26913
#	53115
#	88035
#
# Disc length: 1643 seconds
#
# Revision: 0
# Processed by: cddbd v1.5.1PL0 Copyright (c) Steve Scherf et al.
# Submitted via: CDex 1.50
#
DISCID=2d066904
DTITLE=A.C. de Groot - Inaccessible
DYEAR=1900
DGENRE=New Age
TTITLE0=Undecided
TTITLE1=The River
TTITLE2=Timeless
TTITLE3=Inaccessible
EXTD=
EXTT0=
EXTT1=
EXTT2=
EXTT3=
PLAYORDER=
